HIERARCHY
ROOT Hips
{
    OFFSET   0.000000   0.000000   0.000000
    CHANNELS 6 Xposition Yposition Zposition Zrotation Xrotation Yrotation
    JOINT Chest
    {
        OFFSET   0.000000   8.007230   0.000000
        CHANNELS 3 Zrotation Xrotation Yrotation
        JOINT Chest2
        {
            OFFSET   0.000000  22.077100   0.000000
            CHANNELS 3 Zrotation Xrotation Yrotation
            JOINT Neck
            {
                OFFSET   0.000000  23.254800  -0.000021
                CHANNELS 3 Zrotation Xrotation Yrotation
                JOINT Head
                {
                    OFFSET   0.000000  14.370000   1.956610
                    CHANNELS 3 Zrotation Xrotation Yrotation
                    End Site
                    {
                        OFFSET   0.000000  19.566000   0.000000
                    }
                }
            }
            JOINT LeftCollar
            {
                OFFSET   3.911900  19.017000  -0.467063
                CHANNELS 3 Zrotation Xrotation Yrotation
                JOINT LeftShoulder
                {
                    OFFSET  10.383700   0.000000   0.000000
                    CHANNELS 3 Zrotation Xrotation Yrotation
                    JOINT LeftElbow
                    {
                        OFFSET  26.662100   0.001529   0.000325
                        CHANNELS 3 Zrotation Xrotation Yrotation
                        JOINT LeftWrist
                        {
                            OFFSET  28.869000  -0.000011  -0.000096
                            CHANNELS 3 Zrotation Xrotation Yrotation
                            JOINT LeftFinger0
                            {
                                OFFSET   2.044650  -2.323460   3.252850
                                CHANNELS 3 Zrotation Xrotation Yrotation
                                JOINT LeftFinger01
                                {
                                    OFFSET   3.088130   0.000000   0.000000
                                    CHANNELS 3 Zrotation Xrotation Yrotation
                                    JOINT LeftFinger02
                                    {
                                        OFFSET   2.639460   0.000000   0.000000
                                        CHANNELS 3 Zrotation Xrotation Yrotation
                                        End Site
                                        {
                                            OFFSET   2.582190   0.000000   0.000000
                                        }
                                    }
                                }
                            }
                            JOINT LeftFinger1
                            {
                                OFFSET   8.364480   0.000000   3.252850
                                CHANNELS 3 Zrotation Xrotation Yrotation
                                JOINT LeftFinger11
                                {
                                    OFFSET   4.646930   0.000000   0.000000
                                    CHANNELS 3 Zrotation Xrotation Yrotation
                                    JOINT LeftFinger12
                                    {
                                        OFFSET   2.323460   0.000000   0.000000
                                        CHANNELS 3 Zrotation Xrotation Yrotation
                                        End Site
                                        {
                                            OFFSET   2.273050   0.000000   0.000000
                                        }
                                    }
                                }
                            }
                            JOINT LeftFinger2
                            {
                                OFFSET   8.364480   0.000016   1.078090
                                CHANNELS 3 Zrotation Xrotation Yrotation
                                JOINT LeftFinger21
                                {
                                    OFFSET   5.111620   0.000000   0.000000
                                    CHANNELS 3 Zrotation Xrotation Yrotation
                                    JOINT LeftFinger22
                                    {
                                        OFFSET   2.788160   0.000017   0.000000
                                        CHANNELS 3 Zrotation Xrotation Yrotation
                                        End Site
                                        {
                                            OFFSET   2.727660   0.000000   0.000000
                                        }
                                    }
                                }
                            }
                            JOINT LeftFinger3
                            {
                                OFFSET   7.899780   0.000015  -1.078090
                                CHANNELS 3 Zrotation Xrotation Yrotation
                                JOINT LeftFinger31
                                {
                                    OFFSET   4.646920   0.000000   0.000000
                                    CHANNELS 3 Zrotation Xrotation Yrotation
                                    JOINT LeftFinger32
                                    {
                                        OFFSET   2.323470   0.000000   0.000000
                                        CHANNELS 3 Zrotation Xrotation Yrotation
                                        End Site
                                        {
                                            OFFSET   2.273050   0.000000   0.000000
                                        }
                                    }
                                }
                            }
                            JOINT LeftFinger4
                            {
                                OFFSET   7.435090   0.000000  -3.252850
                                CHANNELS 3 Zrotation Xrotation Yrotation
                                JOINT LeftFinger41
                                {
                                    OFFSET   3.717550   0.000000   0.000000
                                    CHANNELS 3 Zrotation Xrotation Yrotation
                                    JOINT LeftFinger42
                                    {
                                        OFFSET   1.858760   0.000000   0.000000
                                        CHANNELS 3 Zrotation Xrotation Yrotation
                                        End Site
                                        {
                                            OFFSET   1.818440   0.000000   0.000000
                                        }
                                    }
                                }
                            }
                        }
                    }
                }
            }
            JOINT RightCollar
            {
                OFFSET  -3.911900  19.017000  -0.467062
                CHANNELS 3 Zrotation Xrotation Yrotation
                JOINT RightShoulder
                {
                    OFFSET -10.383700   0.000015   0.000000
                    CHANNELS 3 Zrotation Xrotation Yrotation
                    JOINT RightElbow
                    {
                        OFFSET -26.662100   0.001341   0.000385
                        CHANNELS 3 Zrotation Xrotation Yrotation
                        JOINT RightWrist
                        {
                            OFFSET -28.869000   0.000025  -0.000080
                            CHANNELS 3 Zrotation Xrotation Yrotation
                            JOINT RightFinger0
                            {
                                OFFSET  -2.044650  -2.323490   3.252850
                                CHANNELS 3 Zrotation Xrotation Yrotation
                                JOINT RightFinger01
                                {
                                    OFFSET  -3.088130   0.000000   0.000000
                                    CHANNELS 3 Zrotation Xrotation Yrotation
                                    JOINT RightFinger02
                                    {
                                        OFFSET  -2.639460   0.000000   0.000000
                                        CHANNELS 3 Zrotation Xrotation Yrotation
                                        End Site
                                        {
                                            OFFSET  -2.582190   0.000000   0.000000
                                        }
                                    }
                                }
                            }
                            JOINT RightFinger1
                            {
                                OFFSET  -8.364480   0.000000   3.252850
                                CHANNELS 3 Zrotation Xrotation Yrotation
                                JOINT RightFinger11
                                {
                                    OFFSET  -4.646930   0.000000   0.000000
                                    CHANNELS 3 Zrotation Xrotation Yrotation
                                    JOINT RightFinger12
                                    {
                                        OFFSET  -2.323470   0.000000   0.000000
                                        CHANNELS 3 Zrotation Xrotation Yrotation
                                        End Site
                                        {
                                            OFFSET  -2.273050   0.000000   0.000000
                                        }
                                    }
                                }
                            }
                            JOINT RightFinger2
                            {
                                OFFSET  -8.364480   0.000000   1.078090
                                CHANNELS 3 Zrotation Xrotation Yrotation
                                JOINT RightFinger21
                                {
                                    OFFSET  -5.111610   0.000000   0.000000
                                    CHANNELS 3 Zrotation Xrotation Yrotation
                                    JOINT RightFinger22
                                    {
                                        OFFSET  -2.788160   0.000000   0.000000
                                        CHANNELS 3 Zrotation Xrotation Yrotation
                                        End Site
                                        {
                                            OFFSET  -2.727660   0.000000   0.000000
                                        }
                                    }
                                }
                            }
                            JOINT RightFinger3
                            {
                                OFFSET  -7.899780   0.000000  -1.078090
                                CHANNELS 3 Zrotation Xrotation Yrotation
                                JOINT RightFinger31
                                {
                                    OFFSET  -4.646920   0.000000   0.000000
                                    CHANNELS 3 Zrotation Xrotation Yrotation
                                    JOINT RightFinger32
                                    {
                                        OFFSET  -2.323470   0.000000   0.000000
                                        CHANNELS 3 Zrotation Xrotation Yrotation
                                        End Site
                                        {
                                            OFFSET  -2.273050   0.000000   0.000000
                                        }
                                    }
                                }
                            }
                            JOINT RightFinger4
                            {
                                OFFSET  -7.435090   0.000000  -3.252850
                                CHANNELS 3 Zrotation Xrotation Yrotation
                                JOINT RightFinger41
                                {
                                    OFFSET  -3.717550   0.000000   0.000000
                                    CHANNELS 3 Zrotation Xrotation Yrotation
                                    JOINT RightFinger42
                                    {
                                        OFFSET  -1.858770   0.000000   0.000000
                                        CHANNELS 3 Zrotation Xrotation Yrotation
                                        End Site
                                        {
                                            OFFSET  -1.818440   0.000000   0.000000
                                        }
                                    }
                                }
                            }
                        }
                    }
                }
            }
        }
    }
    JOINT LeftHip
    {
        OFFSET   9.783010   0.000000   0.000000
        CHANNELS 3 Zrotation Xrotation Yrotation
        JOINT LeftKnee
        {
            OFFSET   0.000070 -41.789100   0.000028
            CHANNELS 3 Zrotation Xrotation Yrotation
            JOINT LeftAnkle
            {
                OFFSET   0.000087 -41.133200  -0.000100
                CHANNELS 3 Zrotation Xrotation Yrotation
                JOINT LeftToe
                {
                    OFFSET   0.000000  -6.358960  14.674500
                    CHANNELS 3 Zrotation Xrotation Yrotation
                    End Site
                    {
                        OFFSET   0.000000   0.000000   3.913200
                    }
                }
            }
        }
    }
    JOINT RightHip
    {
        OFFSET  -9.783020   0.000000   0.000000
        CHANNELS 3 Zrotation Xrotation Yrotation
        JOINT RightKnee
        {
            OFFSET   0.000044 -41.789100  -0.000870
            CHANNELS 3 Zrotation Xrotation Yrotation
            JOINT RightAnkle
            {
                OFFSET  -0.000090 -41.133200  -0.000245
                CHANNELS 3 Zrotation Xrotation Yrotation
                JOINT RightToe
                {
                    OFFSET   0.000000  -6.358960  14.674500
                    CHANNELS 3 Zrotation Xrotation Yrotation
                    End Site
                    {
                        OFFSET   0.000000   0.000000   3.913200
                    }
                }
            }
        }
    }
}
MOTION
Frames: 5
Frame Time:   0.016667
  0.060423  89.544300   0.274583  -0.669937  -1.252620   0.732095   0.957420   0.862763  -0.781765   1.926830   1.712260  -1.578100  -1.206270   1.507200   0.041239  -1.995230   3.051530   3.041370  -2.858140   4.369240  11.098200 -81.721700   6.706980   3.927770   0.035872   3.418590 -16.264000  11.449700 -11.784200   3.261390  39.008700  32.218600 -47.839400 -33.006100   0.009375   0.006166 -11.503100   0.001618   0.000946 -32.150500  -0.784209   1.247560 -26.312000   0.003501  -0.001901 -18.418400   0.002650  -0.001235 -29.017400  -3.735830   6.720790 -43.854200   0.002150  -0.000411 -29.206900   0.001298   0.000635 -28.089400  -4.290350   7.979160 -35.006700   0.002356  -0.002990 -23.314500   0.001408  -0.007482 -32.317500  -6.013610   9.403420 -49.218900   0.000428  -0.004643 -32.779800   0.003473  -0.001466   4.250460   4.433420   6.472410  75.215000  -4.067250  -3.932820   2.767740  -1.578550  15.781400 -22.001900  -5.398750  -0.559648 -49.283600  40.889500  82.899800  17.725800  -0.004107  -0.004880   3.862900   0.002733  -0.004117  29.347500  -1.907190  -3.387770  24.057500  -0.003212   0.004866  16.840200   0.000638   0.002873  28.221200  -3.185350  -5.912620  34.919000   0.004270   0.000209  23.262300  -0.001023   0.000775  28.124400  -5.075160  -9.384130  36.567500   0.004078  -0.002717  24.354000   0.002110   0.001296  35.627500  -6.263390  -8.637500  54.151100   0.004219  -0.003169  36.064700   0.001146  -0.003990   2.598020   2.456630  -1.094350   0.415792   0.540076  12.695700  -3.151710  -1.884780   0.886926   0.000000   0.000000   0.000000  -1.032490   1.501120  -0.676903  -0.053135   2.602690 -15.213700   0.909679  -2.093220  -2.170360  -0.000000   0.000000   0.000000
  0.053126  89.545000   0.249892  -0.669023  -1.281700   0.766950   0.961189   0.894275  -0.798955   1.935090   1.774930  -1.613090  -1.208060   1.532980   0.041301  -2.000270   3.104170   3.082580  -2.877680   4.309030  11.097300 -81.711200   6.783430   3.948630   0.027557   3.388400 -16.270800  11.451100 -11.788500   3.272280  38.879300  32.033000 -47.741900 -33.074300   0.009365   0.006158 -11.537200   0.001616   0.000951 -32.181700  -0.809023   1.285160 -26.338000   0.003498  -0.001897 -18.436600   0.002650  -0.001232 -29.057400  -3.735920   6.709450 -43.913700   0.002156  -0.000410 -29.246500   0.001302   0.000636 -28.091400  -4.300910   7.997680 -35.039800   0.002352  -0.002992 -23.336500   0.001407  -0.007480 -32.324200  -6.041270   9.443130 -49.235600   0.000429  -0.004640 -32.790900   0.003471  -0.001466   4.266420   4.364350   6.543470  75.151800  -4.063630  -3.996850   2.742790  -1.477070  15.835000 -21.950400  -5.364750  -0.554144 -49.224400  40.852000  82.849300  17.765600  -0.004101  -0.004879   3.882800   0.002728  -0.004117  29.348400  -1.910450  -3.393470  24.058000  -0.003225   0.004868  16.840600   0.000624   0.002873  28.216500  -3.207920  -5.954470  34.920100   0.004306   0.000195  23.261700  -0.001037   0.000778  28.124500  -5.075050  -9.383650  36.603700   0.004074  -0.002720  24.378000   0.002102   0.001297  35.653500  -6.263870  -8.637510  54.190500   0.004217  -0.003170  36.090900   0.001134  -0.003990   2.597810   2.463760  -1.094320   0.421274   0.549566  12.677600  -3.157980  -1.872680   0.869205   0.000000   0.000000   0.000000  -1.016080   1.482760  -0.677139  -0.068776   2.659410 -15.199900   0.919560  -2.105380  -2.222080  -0.000000   0.000000   0.000000
  0.040964  89.546600   0.208815  -0.667191  -1.334430   0.825467   0.968310   0.952004  -0.827856   1.950670   1.889780  -1.672030  -1.214360   1.574860   0.041362  -2.009330   3.189450   3.160540  -2.918660   4.208920  11.095700 -81.688600   6.953930   3.981060   0.009554   3.315690 -16.320800  11.458500 -11.818800   3.338770  38.670300  31.713800 -47.567400 -33.170700   0.009340   0.006149 -11.585400   0.001615   0.000955 -32.235400  -0.857815   1.359550 -26.382900   0.003491  -0.001888 -18.468000   0.002651  -0.001221 -29.117400  -3.736070   6.692420 -44.003000   0.002171  -0.000407 -29.306000   0.001311   0.000639 -28.095300  -4.326470   8.043060 -35.111300   0.002344  -0.002993 -23.384100   0.001405  -0.007478 -32.352500  -6.096280   9.516790 -49.290700   0.000430  -0.004633 -32.827600   0.003466  -0.001465   4.292170   4.248470   6.663490  75.073200  -4.039880  -4.111620   2.708130  -1.332860  15.994000 -21.824800  -5.330750  -0.548641 -49.078900  40.744700  82.696500  17.871000  -0.004090  -0.004871   3.935530   0.002724  -0.004117  29.346900  -1.933270  -3.433370  24.058600  -0.003260   0.004876  16.841000   0.000589   0.002872  28.209500  -3.241090  -6.016750  34.921300   0.004384   0.000155  23.257600  -0.001070   0.000788  28.124600  -5.074860  -9.383160  36.639800   0.004065  -0.002729  24.402100   0.002081   0.001301  35.679500  -6.264360  -8.637520  54.229900   0.004211  -0.003172  36.117100   0.001110  -0.003989   2.597440   2.477830  -1.094290   0.430315   0.568230  12.649000  -3.170550  -1.852990   0.840354  -0.000000   0.000000   0.000000  -0.990793   1.464400  -0.677376  -0.093232   2.750200 -15.179900   0.935794  -2.127720  -2.303660   0.000000   0.000000  -0.000000
  0.031473  89.548700   0.176337  -0.663817  -1.383910   0.874157   0.977492   1.008200  -0.852566   1.970080   2.001600  -1.722600  -1.227900   1.607370   0.041307  -2.025760   3.255090   3.242910  -2.971460   4.124740  11.085200 -81.661500   7.187650   4.005940  -0.016485   3.211120 -16.440200  11.405500 -12.051700   3.498450  38.476000  31.368700 -47.347200 -33.214700   0.009305   0.006152 -11.607400   0.001620   0.000950 -32.294400  -0.928910   1.469070 -26.432600   0.003481  -0.001876 -18.502800   0.002650  -0.001203 -29.157700  -3.736180   6.681040 -44.063000   0.002194  -0.000399 -29.345900   0.001324   0.000648 -28.100800  -4.375880   8.132030 -35.231500   0.002334  -0.002993 -23.464200   0.001400  -0.007479 -32.432100  -6.178000   9.612840 -49.428100   0.000431  -0.004623 -32.919100   0.003459  -0.001461   4.310130   4.146680   6.769710  75.061900  -3.966940  -4.220600   2.631910  -1.296280  16.231700 -21.674200  -5.338930  -0.620323 -48.905000  40.584500  82.457800  18.038500  -0.004076  -0.004850   4.019250   0.002729  -0.004116  29.239500  -2.018490  -3.601180  23.975400  -0.003318   0.004888  16.782800   0.000536   0.002872  28.200800  -3.260930  -6.056640  34.864400   0.004490   0.000084  23.217900  -0.001116   0.000808  28.121900  -5.074620  -9.386250  36.607000   0.004054  -0.002747  24.380300   0.002048   0.001308  35.654000  -6.260920  -8.642450  54.191400   0.004203  -0.003176  36.091500   0.001077  -0.003990   2.597360   2.492130  -1.099670   0.437669   0.588335  12.629200  -3.185100  -1.837490   0.818630   0.000000   0.000000   0.000000  -0.975063   1.469690  -0.677292  -0.109320   2.813010 -15.170200   0.948376  -2.149880  -2.358370   0.000000   0.000000  -0.000000
  0.021508  89.551000   0.143489  -0.658484  -1.441830   0.921382   0.984150   1.072510  -0.875458   1.985100   2.129710  -1.769670  -1.242380   1.636010   0.041237  -2.045690   3.312720   3.335430  -3.028530   4.050330  11.074900 -81.624200   7.459400   4.020480  -0.062581   3.078070 -16.650300  11.297600 -12.417700   3.712410  38.368900  31.150900 -47.217600 -33.230600   0.009259   0.006155 -11.615300   0.001625   0.000944 -32.330800  -0.976023   1.541810 -26.463300   0.003469  -0.001861 -18.524300   0.002650  -0.001180 -29.178000  -3.736250   6.675330 -44.093100   0.002224  -0.000388 -29.366000   0.001340   0.000662 -28.104400  -4.410280   8.194130 -35.313400   0.002322  -0.002993 -23.518700   0.001394  -0.007481 -32.490000  -6.232350   9.674970 -49.526900   0.000433  -0.004609 -32.984900   0.003447  -0.001456   4.327780   4.058860   6.864110  75.053300  -3.854670  -4.338360   2.506190  -1.236490  16.624200 -21.433900  -5.396420  -0.826918 -48.598500  40.327700  82.090500  18.251000  -0.004061  -0.004827   4.125510   0.002735  -0.004116  29.134200  -2.084130  -3.734800  23.892100  -0.003387   0.004904  16.724500   0.000469   0.002872  28.187900  -3.270170  -6.076090  34.753000   0.004603   0.000000  23.145500  -0.001175   0.000830  28.114500  -5.074410  -9.392710  36.522000   0.004040  -0.002771  24.323700   0.002008   0.001318  35.596600  -6.254340  -8.653430  54.105400   0.004191  -0.003182  36.034200   0.001048  -0.003990   2.597460   2.512040  -1.109570   0.444239   0.613455  12.612400  -3.202160  -1.824030   0.797891  -0.000000   0.000000  -0.000000  -0.961653   1.483240  -0.676697  -0.123411   2.875110 -15.163300   0.960638  -2.174650  -2.409330  -0.000000   0.000000  -0.000000
